<svg width="400" height="300" viewBox="0 0 400 300" fill="none" xmlns="http://www.w3.org/2000/svg">
    <!-- Background Circle -->
    <circle cx="200" cy="150" r="120" fill="#EEF2FF" />
    
    <!-- Profile Card -->
    <rect x="120" y="80" width="160" height="180" rx="12" fill="white" stroke="#4F46E5" stroke-width="2"/>
    
    <!-- Profile Picture Placeholder -->
    <circle cx="200" cy="130" r="30" fill="#818CF8"/>
    <path d="M200 120C204.4 120 208 123.6 208 128C208 132.4 204.4 136 200 136C195.6 136 192 132.4 192 128C192 123.6 195.6 120 200 120ZM200 144C208.8 144 216 147.6 216 152V156H184V152C184 147.6 191.2 144 200 144Z" fill="white"/>
    
    <!-- Form Lines -->
    <rect x="140" y="180" width="120" height="8" rx="4" fill="#E0E7FF"/>
    <rect x="140" y="200" width="120" height="8" rx="4" fill="#E0E7FF"/>
    <rect x="140" y="220" width="80" height="8" rx="4" fill="#E0E7FF"/>
    
    <!-- Decorative Elements -->
    <circle cx="320" cy="100" r="15" fill="#4F46E5" opacity="0.2"/>
    <circle cx="80" cy="200" r="20" fill="#818CF8" opacity="0.2"/>
    <circle cx="300" cy="220" r="25" fill="#6366F1" opacity="0.2"/>
</svg>