<svg viewBox="0 0 200 200" xmlns="http://www.w3.org/2000/svg">
    <path fill="#8B5CF6" fill-opacity="0.1" d="M45.7,-77.8C58.9,-69.3,69.3,-55.3,76.4,-40C83.5,-24.7,87.3,-8.1,85.8,8.2C84.2,24.4,77.4,40.3,67.1,53.5C56.8,66.7,43.1,77.3,27.8,81.6C12.4,85.9,-4.5,84,-20.6,79.1C-36.7,74.3,-51.9,66.5,-63.8,54.7C-75.7,42.9,-84.2,27.2,-87.6,10C-91,-7.2,-89.2,-25.8,-81.7,-41.2C-74.2,-56.6,-61,-68.8,-46,-77.4C-31,-86,-15.5,-91,0.9,-92.4C17.3,-93.8,32.5,-86.4,45.7,-77.8Z" transform="translate(100 100)" />
</svg>